<?xml version="1.0" encoding="utf-8"?>
<!-- Generator: Adobe Illustrator 21.0.0, SVG Export Plug-In . SVG Version: 6.00 Build 0)  -->
<svg version="1.1" id="Layer_1" xmlns="http://www.w3.org/2000/svg" xmlns:xlink="http://www.w3.org/1999/xlink" x="0px" y="0px"
	 viewBox="0 0 408 219" style="enable-background:new 0 0 408 219;" xml:space="preserve">
<style type="text/css">
	.st0{fill:#28730F;stroke:#28730F;stroke-width:2;stroke-miterlimit:10;}
	.st1{fill:#28890F;}
</style>
<g>
	<path class="st0" d="M41.8,191.9c0,1.5-0.3,2.8-1,3.9c-0.7,1.1-1.5,2.1-2.6,2.8c-1.1,0.7-2.3,1.3-3.6,1.7c-1.3,0.4-2.6,0.6-4,0.6
		c-2.4,0-4.6-0.5-6.7-1.4c-2.1-0.9-4-2.2-5.7-3.7c-0.2-0.2-0.2-0.3-0.2-0.5c0-0.2,0.1-0.3,0.2-0.5c0.1-0.2,0.3-0.2,0.5-0.2
		c0.1,0,0.3,0.1,0.4,0.2c1.7,1.4,3.5,2.6,5.4,3.5c1.8,0.9,3.9,1.3,6.2,1.3c1.2,0,2.3-0.2,3.5-0.5c1.2-0.3,2.2-0.8,3.1-1.5
		c0.9-0.7,1.7-1.5,2.2-2.4c0.6-1,0.9-2.1,0.9-3.4c0-1.1-0.2-2-0.7-2.7c-0.5-0.8-1.2-1.4-2-2c-0.8-0.5-1.7-1-2.8-1.4
		c-1-0.4-2.1-0.7-3.1-0.9c-1.1-0.3-2.1-0.5-3.1-0.7c-1-0.2-1.9-0.4-2.6-0.6c-0.9-0.2-1.8-0.6-2.6-1c-0.8-0.4-1.6-1-2.2-1.6
		c-0.6-0.6-1.1-1.4-1.5-2.2c-0.4-0.8-0.6-1.8-0.6-2.9c0-1.4,0.3-2.6,1-3.7c0.7-1,1.5-1.9,2.5-2.6c1-0.7,2.2-1.2,3.5-1.5
		c1.3-0.3,2.5-0.5,3.7-0.5c0.8,0,1.7,0.1,2.6,0.2c1,0.2,2,0.4,3,0.7c1,0.3,1.9,0.7,2.8,1.1c0.9,0.4,1.6,0.9,2.2,1.5
		c0.1,0.1,0.1,0.2,0.2,0.2c0,0.1,0.1,0.2,0.1,0.3c0,0.2-0.1,0.3-0.2,0.5c-0.1,0.1-0.3,0.2-0.5,0.2c-0.1,0-0.2,0-0.3-0.1
		c-0.2-0.1-0.3-0.2-0.5-0.3c-0.2-0.1-0.3-0.2-0.5-0.3c-0.2-0.1-0.3-0.2-0.4-0.2c-1.2-0.7-2.6-1.3-4-1.8c-1.4-0.4-2.9-0.7-4.4-0.7
		c-1.1,0-2.1,0.1-3.2,0.4c-1.1,0.3-2.1,0.7-3.1,1.2c-0.9,0.6-1.7,1.3-2.3,2.1c-0.6,0.9-0.9,1.9-0.9,3.1c0,1.3,0.3,2.4,0.9,3.3
		c0.6,0.8,1.4,1.5,2.4,2.1c1,0.5,2.1,1,3.4,1.3c1.3,0.3,2.6,0.7,3.9,1s2.7,0.6,3.9,1c1.3,0.4,2.4,0.9,3.4,1.5c1,0.6,1.8,1.4,2.4,2.4
		C41.5,189.2,41.8,190.4,41.8,191.9L41.8,191.9L41.8,191.9z M72.3,196.1c0,0.2-0.1,0.3-0.2,0.5c-1.5,1.4-3.2,2.5-5.2,3.2
		c-1.9,0.7-3.9,1-5.9,1c-2.3,0-4.5-0.4-6.5-1.3c-2-0.9-3.8-2.1-5.3-3.6s-2.7-3.3-3.6-5.3c-0.9-2-1.3-4.2-1.3-6.5s0.4-4.5,1.3-6.5
		c0.9-2,2.1-3.8,3.6-5.3s3.3-2.7,5.3-3.6c2-0.9,4.2-1.3,6.5-1.3c1,0,2,0.1,3,0.3c1,0.2,2,0.5,3,0.8c1,0.4,1.9,0.8,2.7,1.3
		c0.9,0.5,1.7,1.1,2.4,1.8c0.2,0.2,0.2,0.3,0.2,0.5s-0.1,0.3-0.2,0.5c-0.2,0.1-0.3,0.2-0.5,0.2c-0.2,0-0.3-0.1-0.4-0.2
		c-0.8-0.6-1.6-1.2-2.4-1.6c-0.8-0.5-1.6-0.9-2.4-1.2c-0.8-0.3-1.7-0.6-2.6-0.8c-0.9-0.2-1.9-0.3-2.9-0.3c-2.1,0-4.1,0.4-6,1.2
		c-1.9,0.8-3.5,1.9-4.9,3.3c-1.4,1.4-2.5,3-3.3,4.9c-0.8,1.9-1.2,3.8-1.2,6s0.4,4.1,1.2,6c0.8,1.9,1.9,3.5,3.3,4.9
		c1.4,1.4,3,2.5,4.9,3.3c1.9,0.8,3.8,1.2,6,1.2c2,0,3.8-0.3,5.5-1c1.6-0.7,3.2-1.6,4.7-2.9c0.1-0.1,0.3-0.2,0.5-0.2s0.3,0.1,0.5,0.2
		C72.2,195.8,72.3,196,72.3,196.1L72.3,196.1L72.3,196.1z M79.7,200.2c0,0.2-0.1,0.3-0.2,0.5c-0.1,0.1-0.3,0.2-0.5,0.2
		s-0.3-0.1-0.4-0.2c-0.1-0.1-0.2-0.3-0.2-0.4v-32.1c0-0.2,0.1-0.3,0.2-0.4c0.1-0.1,0.3-0.2,0.4-0.2s0.3,0.1,0.5,0.2
		c0.1,0.1,0.2,0.3,0.2,0.5V200.2L79.7,200.2z M110.2,200.1c0,0.2-0.1,0.3-0.2,0.5c-0.1,0.2-0.3,0.2-0.5,0.2H89.2
		c-0.2,0-0.4-0.1-0.5-0.2c-0.1-0.1-0.2-0.3-0.2-0.5v-32c0-0.2,0.1-0.3,0.2-0.5c0.1-0.1,0.3-0.2,0.5-0.2h20.4c0.2,0,0.3,0.1,0.4,0.2
		c0.1,0.1,0.2,0.3,0.2,0.4s-0.1,0.3-0.2,0.4c-0.1,0.1-0.3,0.2-0.4,0.2H89.8v13h15.5c0.2,0,0.3,0.1,0.4,0.2c0.1,0.1,0.2,0.3,0.2,0.4
		s-0.1,0.3-0.2,0.4c-0.1,0.1-0.3,0.2-0.4,0.2H89.9l0,2.8h15.6c0.4,0,0.7,0.2,0.7,0.7c0,0.2-0.1,0.3-0.2,0.5
		c-0.1,0.1-0.3,0.2-0.5,0.2H89.8v12.3h19.8c0.2,0,0.3,0.1,0.4,0.2C110.2,199.8,110.2,200,110.2,200.1L110.2,200.1L110.2,200.1z
		 M140.8,200.2c0,0.4-0.2,0.7-0.7,0.7c-0.2,0-0.4-0.1-0.5-0.2l-22.9-31.9c-0.1-0.1-0.1-0.2-0.1-0.4c0-0.4,0.2-0.7,0.6-0.7
		c0.2,0,0.3,0.1,0.5,0.3l21.7,30.2v-30.1c0-0.2,0.1-0.3,0.2-0.4c0.1-0.1,0.3-0.2,0.4-0.2c0.2,0,0.3,0.1,0.4,0.2
		c0.1,0.1,0.2,0.3,0.2,0.4L140.8,200.2L140.8,200.2z M135.8,200.2c0,0.2-0.1,0.3-0.2,0.4c-0.1,0.1-0.3,0.2-0.5,0.2
		c-0.2,0-0.4-0.1-0.5-0.2l-16.7-23.5v23c0,0.2-0.1,0.3-0.2,0.5c-0.1,0.1-0.3,0.2-0.5,0.2c-0.4,0-0.7-0.2-0.7-0.7v-25.1
		c0-0.1,0.1-0.3,0.2-0.4c0.1-0.1,0.3-0.2,0.4-0.2c0.2,0,0.4,0.1,0.5,0.3c0.2,0.3,0.6,0.8,1.2,1.7c0.6,0.8,1.4,1.9,2.2,3.1
		s1.9,2.6,2.9,4.1s2.1,3,3.2,4.5c1.1,1.5,2.1,3,3.1,4.4c1,1.4,1.9,2.7,2.7,3.8c0.8,1.1,1.4,2,1.9,2.7
		C135.6,199.7,135.8,200.1,135.8,200.2L135.8,200.2L135.8,200.2z M174.4,196.1c0,0.2-0.1,0.3-0.2,0.5c-1.5,1.4-3.2,2.5-5.2,3.2
		c-1.9,0.7-3.9,1-5.9,1c-2.3,0-4.5-0.4-6.5-1.3c-2-0.9-3.8-2.1-5.3-3.6s-2.7-3.3-3.6-5.3c-0.9-2-1.3-4.2-1.3-6.5s0.4-4.5,1.3-6.5
		c0.9-2,2.1-3.8,3.6-5.3s3.3-2.7,5.3-3.6c2-0.9,4.2-1.3,6.5-1.3c1,0,2,0.1,3,0.3c1,0.2,2,0.5,3,0.8c1,0.4,1.9,0.8,2.7,1.3
		c0.9,0.5,1.7,1.1,2.4,1.8c0.2,0.2,0.2,0.3,0.2,0.5s-0.1,0.3-0.2,0.5s-0.3,0.2-0.5,0.2c-0.2,0-0.3-0.1-0.4-0.2
		c-0.8-0.6-1.6-1.2-2.4-1.6s-1.6-0.9-2.4-1.2c-0.8-0.3-1.7-0.6-2.6-0.8c-0.9-0.2-1.9-0.3-2.9-0.3c-2.1,0-4.1,0.4-6,1.2
		c-1.9,0.8-3.5,1.9-4.9,3.3c-1.4,1.4-2.5,3-3.3,4.9c-0.8,1.9-1.2,3.8-1.2,6s0.4,4.1,1.2,6c0.8,1.9,1.9,3.5,3.3,4.9
		c1.4,1.4,3,2.5,4.9,3.3c1.9,0.8,3.8,1.2,6,1.2c2,0,3.8-0.3,5.5-1c1.6-0.7,3.2-1.6,4.7-2.9c0.1-0.1,0.3-0.2,0.5-0.2
		c0.2,0,0.3,0.1,0.5,0.2C174.3,195.8,174.4,196,174.4,196.1L174.4,196.1L174.4,196.1z M199.7,200.1c0,0.2-0.1,0.3-0.2,0.5
		c-0.1,0.2-0.3,0.2-0.5,0.2h-20.4c-0.2,0-0.4-0.1-0.5-0.2c-0.1-0.1-0.2-0.3-0.2-0.5v-32c0-0.2,0.1-0.3,0.2-0.5
		c0.1-0.1,0.3-0.2,0.5-0.2H199c0.2,0,0.3,0.1,0.4,0.2c0.1,0.1,0.2,0.3,0.2,0.4c0,0.2-0.1,0.3-0.2,0.4c-0.1,0.1-0.3,0.2-0.4,0.2
		h-19.8v13h15.5c0.2,0,0.3,0.1,0.4,0.2c0.1,0.1,0.2,0.3,0.2,0.4c0,0.2-0.1,0.3-0.2,0.4c-0.1,0.1-0.3,0.2-0.4,0.2h-15.4l0,2.8h15.6
		c0.4,0,0.7,0.2,0.7,0.7c0,0.2-0.1,0.3-0.2,0.5c-0.1,0.1-0.3,0.2-0.5,0.2h-15.6v12.3H199c0.2,0,0.3,0.1,0.4,0.2
		C199.6,199.8,199.7,200,199.7,200.1L199.7,200.1L199.7,200.1z M225.3,200.1c0,0.2-0.1,0.3-0.2,0.5c-0.1,0.2-0.3,0.2-0.5,0.2h-20.4
		c-0.2,0-0.4-0.1-0.5-0.2c-0.1-0.1-0.2-0.3-0.2-0.5v-32c0-0.2,0.1-0.3,0.2-0.5c0.1-0.1,0.3-0.2,0.5-0.2h20.4c0.2,0,0.3,0.1,0.4,0.2
		c0.1,0.1,0.2,0.3,0.2,0.4s-0.1,0.3-0.2,0.4c-0.1,0.1-0.3,0.2-0.4,0.2h-19.8v13h15.5c0.2,0,0.3,0.1,0.4,0.2c0.1,0.1,0.2,0.3,0.2,0.4
		s-0.1,0.3-0.2,0.4c-0.1,0.1-0.3,0.2-0.4,0.2h-15.4l0,2.8h15.6c0.4,0,0.7,0.2,0.7,0.7c0,0.2-0.1,0.3-0.2,0.5
		c-0.1,0.1-0.3,0.2-0.5,0.2h-15.6v12.3h19.8c0.2,0,0.3,0.1,0.4,0.2C225.2,199.8,225.3,200,225.3,200.1L225.3,200.1L225.3,200.1z
		 M254,196.1c0,0.2-0.1,0.3-0.2,0.5c-1.5,1.4-3.2,2.5-5.2,3.2c-1.9,0.7-3.9,1-5.9,1c-2.3,0-4.5-0.4-6.5-1.3c-2-0.9-3.8-2.1-5.3-3.6
		c-1.5-1.5-2.7-3.3-3.6-5.3c-0.9-2-1.3-4.2-1.3-6.5c0-2.3,0.4-4.5,1.3-6.5c0.9-2,2.1-3.8,3.6-5.3c1.5-1.5,3.3-2.7,5.3-3.6
		s4.2-1.3,6.5-1.3c1,0,2,0.1,3,0.3c1,0.2,2,0.5,3,0.8c1,0.4,1.9,0.8,2.7,1.3s1.7,1.1,2.4,1.8c0.2,0.2,0.2,0.3,0.2,0.5
		s-0.1,0.3-0.2,0.5s-0.3,0.2-0.5,0.2c-0.2,0-0.3-0.1-0.4-0.2c-0.8-0.6-1.6-1.2-2.4-1.6s-1.6-0.9-2.4-1.2c-0.8-0.3-1.7-0.6-2.6-0.8
		c-0.9-0.2-1.9-0.3-2.9-0.3c-2.1,0-4.1,0.4-6,1.2c-1.9,0.8-3.5,1.9-4.9,3.3c-1.4,1.4-2.5,3-3.3,4.9c-0.8,1.9-1.2,3.8-1.2,6
		c0,2.1,0.4,4.1,1.2,6c0.8,1.9,1.9,3.5,3.3,4.9c1.4,1.4,3,2.5,4.9,3.3s3.8,1.2,6,1.2c2,0,3.8-0.3,5.5-1c1.6-0.7,3.2-1.6,4.7-2.9
		c0.1-0.1,0.3-0.2,0.5-0.2c0.2,0,0.3,0.1,0.5,0.2C253.9,195.8,254,196,254,196.1L254,196.1L254,196.1z M288.6,184.2
		c0,2.3-0.4,4.5-1.3,6.5c-0.9,2-2.1,3.8-3.6,5.3c-1.5,1.5-3.3,2.7-5.3,3.6c-2,0.9-4.2,1.3-6.5,1.3c-2.3,0-4.5-0.4-6.5-1.3
		c-2-0.9-3.8-2.1-5.3-3.6c-1.5-1.5-2.7-3.3-3.6-5.3c-0.9-2-1.3-4.2-1.3-6.5c0-2.3,0.4-4.5,1.3-6.5c0.9-2,2.1-3.8,3.6-5.3
		c1.5-1.5,3.3-2.7,5.3-3.6c2-0.9,4.2-1.3,6.5-1.3c2.3,0,4.5,0.4,6.5,1.3c2,0.9,3.8,2.1,5.3,3.6c1.5,1.5,2.7,3.3,3.6,5.3
		C288.2,179.7,288.6,181.9,288.6,184.2L288.6,184.2z M287.3,184.2c0-2.1-0.4-4.1-1.2-6c-0.8-1.9-1.9-3.5-3.3-4.9
		c-1.4-1.4-3-2.5-4.9-3.3c-1.9-0.8-3.8-1.2-6-1.2s-4.1,0.4-6,1.2c-1.9,0.8-3.5,1.9-4.9,3.3c-1.4,1.4-2.5,3-3.3,4.9
		c-0.8,1.9-1.2,3.8-1.2,6s0.4,4.1,1.2,6c0.8,1.9,1.9,3.5,3.3,4.9s3,2.5,4.9,3.3c1.9,0.8,3.8,1.2,6,1.2c2.1,0,4.1-0.4,6-1.2
		c1.9-0.8,3.5-1.9,4.9-3.3c1.4-1.4,2.5-3,3.3-4.9C286.9,188.3,287.3,186.3,287.3,184.2L287.3,184.2z M316.3,175.6
		c0,1.1-0.2,2.2-0.6,3.1c-0.4,1-1,1.8-1.7,2.6c-0.7,0.7-1.6,1.3-2.5,1.7c-1,0.4-2,0.6-3.1,0.6h-7.8V200c0,0.2-0.1,0.3-0.2,0.5
		c-0.2,0.1-0.3,0.2-0.5,0.2c-0.2,0-0.3-0.1-0.5-0.2c-0.1-0.1-0.2-0.3-0.2-0.4v-31.2h-2.7v31.4c0,0.2-0.1,0.3-0.2,0.5
		c-0.1,0.1-0.3,0.2-0.5,0.2c-0.2,0-0.3-0.1-0.4-0.2c-0.1-0.1-0.2-0.3-0.2-0.4v-32c0-0.4,0.2-0.7,0.6-0.7h12.5c1.1,0,2.2,0.2,3.1,0.6
		c1,0.4,1.8,1,2.5,1.7c0.7,0.7,1.3,1.6,1.7,2.5C316.1,173.4,316.3,174.4,316.3,175.6L316.3,175.6L316.3,175.6z M315,175.6
		c0-0.9-0.2-1.8-0.5-2.6s-0.8-1.5-1.5-2.1c-0.6-0.6-1.3-1.1-2.1-1.5c-0.8-0.4-1.7-0.5-2.6-0.5h-7.8v13.5h7.8c0.9,0,1.8-0.2,2.6-0.5
		c0.8-0.4,1.5-0.8,2.1-1.5c0.6-0.6,1.1-1.3,1.5-2.1S315,176.5,315,175.6L315,175.6z M345.5,200.2c0,0.2-0.1,0.3-0.2,0.4
		c-0.1,0.1-0.3,0.2-0.4,0.2c-0.3,0-0.5-0.1-0.6-0.4l-12.1-30.6l-1.4,3.5c0.1,0.2,0.3,0.8,0.7,1.7c0.4,0.9,0.8,2,1.3,3.3
		c0.5,1.3,1.1,2.7,1.7,4.3c0.6,1.6,1.2,3.2,1.9,4.8s1.3,3.2,1.9,4.7c0.6,1.5,1.1,2.9,1.6,4.1c0.5,1.2,0.8,2.2,1.1,2.9
		c0.3,0.7,0.4,1.1,0.4,1.1c0,0.3-0.1,0.5-0.4,0.6c-0.1,0-0.1,0-0.1,0c0,0-0.1,0-0.1,0c-0.3,0-0.5-0.1-0.6-0.4l-10-25.2l-9.7,25.2
		c-0.1,0.3-0.3,0.4-0.6,0.4c-0.1,0-0.1,0-0.1,0s0,0-0.1,0c-0.3-0.1-0.4-0.3-0.4-0.6c0,0,0.2-0.5,0.5-1.4c0.3-0.9,0.8-2,1.3-3.5
		c0.5-1.4,1.2-3,1.9-4.9c0.7-1.8,1.4-3.7,2.2-5.6c0.7-1.9,1.5-3.8,2.2-5.7c0.7-1.9,1.4-3.6,2-5.2c0.6-1.6,1.1-2.9,1.5-4
		s0.7-1.8,0.8-2.1c0.1-0.2,0.3-0.4,0.6-0.4c0.3,0,0.5,0.1,0.6,0.4c0.1,0.3,0.4,1,0.8,2.1c0.4,1.1,1,2.4,1.6,4
		c0.6,1.6,1.3,3.3,2.1,5.2s1.5,3.8,2.3,5.7c0.8,1.9,1.5,3.8,2.2,5.6c0.7,1.8,1.4,3.5,1.9,4.9c0.6,1.4,1,2.6,1.4,3.5
		C345.3,199.7,345.5,200.2,345.5,200.2L345.5,200.2L345.5,200.2z M372.1,174.9c0,1-0.2,1.9-0.5,2.8c-0.3,0.9-0.8,1.6-1.4,2.3
		c-0.6,0.7-1.3,1.2-2.1,1.7c-0.8,0.4-1.7,0.7-2.7,0.9c-0.1,0-0.3,0-0.4,0h-0.4h-7.2l0,2.8h7.6c0.2,0,0.4,0.1,0.6,0.4
		c0.1,0.2,0.3,0.7,0.7,1.5c0.4,0.8,0.8,1.7,1.3,2.7c0.5,1.1,1,2.2,1.5,3.3c0.5,1.2,1,2.2,1.5,3.2c0.5,1,0.8,1.8,1.1,2.5
		c0.3,0.7,0.5,1.1,0.5,1.1c0,0.2-0.1,0.3-0.2,0.4c-0.1,0.1-0.3,0.1-0.5,0.1c-0.3,0-0.5-0.1-0.6-0.4l-6.3-13.8h-7.3V200
		c0,0.2-0.1,0.3-0.2,0.5c-0.1,0.1-0.3,0.2-0.5,0.2s-0.3-0.1-0.4-0.2c-0.1-0.1-0.2-0.3-0.2-0.4v-31.2h-2.7v31.5
		c0,0.2-0.1,0.3-0.2,0.5c-0.1,0.1-0.3,0.2-0.5,0.2c-0.2,0-0.3-0.1-0.4-0.2c-0.1-0.1-0.2-0.3-0.2-0.4v-32.1c0-0.4,0.2-0.6,0.6-0.6
		h12.1c1.1,0,2,0.2,3,0.6c0.9,0.4,1.7,0.9,2.4,1.6c0.7,0.7,1.2,1.5,1.6,2.4C371.9,172.9,372.1,173.9,372.1,174.9L372.1,174.9z
		 M370.8,174.9c0-0.9-0.2-1.7-0.5-2.4c-0.3-0.7-0.8-1.4-1.4-2c-0.6-0.6-1.2-1-2-1.3c-0.7-0.3-1.6-0.5-2.4-0.5h-7.4v12.5h7.4
		c0.9,0,1.7-0.2,2.4-0.5c0.8-0.3,1.4-0.8,2-1.4c0.6-0.6,1-1.3,1.3-2C370.7,176.6,370.8,175.8,370.8,174.9L370.8,174.9z M399.1,200.3
		c0,0.2-0.1,0.3-0.2,0.4c-0.2,0.1-0.3,0.2-0.4,0.2c-0.2,0-0.4-0.1-0.5-0.2l-11.2-15.7l-6.2,6.2v8.8c0,0.2-0.1,0.3-0.2,0.4
		c-0.1,0.1-0.3,0.2-0.5,0.2c-0.2,0-0.3-0.1-0.5-0.2c-0.1-0.1-0.2-0.3-0.2-0.5v-31.6c0-0.2,0.1-0.3,0.2-0.5c0.1-0.1,0.3-0.2,0.5-0.2
		c0.2,0,0.3,0.1,0.5,0.2c0.1,0.1,0.2,0.3,0.2,0.4v15.3l16-16c0.1-0.1,0.3-0.2,0.4-0.2c0.2,0,0.3,0.1,0.5,0.2
		c0.1,0.2,0.2,0.3,0.2,0.4c0,0.2-0.1,0.3-0.2,0.5l-16.8,16.9v3.8c0.1-0.1,0.3-0.3,0.7-0.7c0.3-0.3,0.7-0.7,1.1-1.2
		c0.4-0.4,0.9-0.9,1.4-1.4c0.5-0.5,0.9-0.9,1.4-1.3c0.4-0.4,0.8-0.7,1.1-1c0.3-0.3,0.5-0.4,0.6-0.4c0.2,0,0.4,0.1,0.6,0.2
		c0.2,0.2,0.6,0.8,1.2,1.7c0.7,0.9,1.4,2,2.3,3.1c0.9,1.2,1.8,2.5,2.8,3.8c1,1.3,1.9,2.6,2.7,3.7c0.8,1.2,1.5,2.1,2,2.9
		C398.8,199.7,399.1,200.2,399.1,200.3L399.1,200.3L399.1,200.3z"/>
	<path class="st1" d="M280.4,78.6c-1.2-19.2-9.8-36.8-24.2-49.6c-14.4-12.7-32.9-19.1-52.1-17.9c-11.6,0.7-22.6,4.1-32.5,10.1
		c-0.8,0.5-1,1.5-0.6,2.3c0.5,0.8,1.5,1,2.3,0.6c9.5-5.7,19.9-8.9,31-9.6c7.2-0.4,14.3,0.2,21.1,2c-0.2,0.8-0.3,1.6-0.3,2.4
		c0,3.9,2,7.4,5.1,9.4c-2.3,3.1-6.2,3.6-8.2,3.7c-0.4-2.6-1.9-4.9-4.1-6.4c0.2-0.7,0.3-1.4,0.3-2.2c0-4.7-3.8-8.4-8.4-8.4
		c-4.2,0-7.7,3.1-8.3,7.1c-3.1,1-5.3,3.9-5.3,7.3c0,4.1,3.2,7.4,7.2,7.7c0.7,1.9,2.1,3.5,3.7,4.6c0.8,2.1,4,8.7,12.7,9.7
		c-0.1,0.5-0.2,1-0.2,1.5c0,1.3,0.3,2.6,0.9,3.8c-4.5,2-7.4,6.4-7.4,11.4c0,6.9,5.6,12.5,12.5,12.5c0.7,0,1.4-0.1,2.1-0.2
		c1.4,3.2,4.3,5.6,7.7,6.4V112l-6-3.4l-2.5,9.4l8,8v20.6c-7,2.9-14.5,4.7-22.2,5.2c-4.5,0.3-9,0.1-13.3-0.5v-12
		c14.9-2.5,26.3-15.4,26.3-30.9c0-17.3-14.1-31.4-31.4-31.4c-0.8,0-1.7,0.1-2.5,0.1c-0.5-0.7-0.8-1.3-1.1-1.9
		c6.9-2.2,11.6-6.6,11.6-11.7c0-6.8-8.2-12.2-19.1-13.1c-0.4-0.4-1.5-1.5-2.5-3.9c0.5-0.1,1.1-0.4,1.7-0.8c1.8-1.2,2.9-3.5,3.3-6.7
		c4.4-1.2,7.4-3.7,7.4-6.7c0-4.3-5.7-7.5-13.3-7.5c-7.6,0-13.3,3.2-13.3,7.5c0,3.4,3.6,6.1,8.9,7.1c0.8,5.4,2.1,8.8,3.4,10.9
		c-11.9,0.4-21.1,6-21.1,13.2c0,7.4,9.8,13.3,22.3,13.3c2.6,0,5.1-0.3,7.4-0.7c0.2,0.4,0.4,1,0.8,1.5c-14.4,2.9-25.2,15.6-25.2,30.8
		c0,15.6,11.4,28.5,26.3,30.9v9.8c-9.6-2.8-18.5-7.7-26.2-14.5c-6-5.3-10.9-11.4-14.6-18.2h6.2c4,0,5.5-1.8,6-2.9
		c0.6-1.1,1.1-3.4-1.2-6.6l-0.3-0.4c0.6-1.7,0.2-3.7-1.3-5.7l-2.5-3.3c0.4-0.4,0.7-0.9,0.8-1.4c0.4-1.4,0-3.1-1.1-4.7l-2.2-2.9
		c0.6-0.5,0.9-1,1.1-1.4c0.4-0.8,0.7-2.4-0.8-4.5l-1.2-1.6c0.3-0.3,0.6-0.7,0.7-1.1c0.3-0.7,0.6-2.2-0.8-4l-5.4-7.3
		c-1-1.4-2.5-2.2-4-2.2c0,0,0,0,0,0c-0.2,0-0.4,0-0.6,0.1c3-12,9.2-23.1,18.1-32c0.7-0.6,0.7-1.7,0-2.4c-0.6-0.7-1.7-0.7-2.4,0
		c-14.7,14.6-22.3,34.9-21.1,55.5c1.2,19.2,9.8,36.8,24.2,49.6c13.3,11.7,30,18.1,47.6,18.1c1.5,0,3,0,4.5-0.1
		c19.2-1.2,36.8-9.8,49.5-24.2C275.3,116.3,281.6,97.8,280.4,78.6L280.4,78.6z M169.8,32.2c0-1.6,3.5-3.9,9.1-4.1
		c-0.4,0-0.8,0.2-1,0.4c-0.3,0.3-0.5,0.7-0.5,1.2c0,0.4,0.2,0.9,0.5,1.2c0.3,0.3,0.7,0.5,1.2,0.5c0.4,0,0.9-0.2,1.2-0.5
		c0.3-0.3,0.5-0.7,0.5-1.2s-0.2-0.9-0.5-1.2c-0.3-0.3-0.7-0.4-1.1-0.4c0.2,0,0.4,0,0.6,0c6.1,0,9.9,2.5,9.9,4.1
		c0,1.7-3.8,4.1-9.9,4.1C173.6,36.3,169.8,33.9,169.8,32.2L169.8,32.2z M179.7,39.6c0.8,0,1.6,0,2.4-0.1c-0.3,1.6-0.9,2.8-1.7,3.3
		c-0.3,0.2-0.6,0.3-0.9,0.4c-0.3-1-0.5-2.2-0.8-3.6C179.1,39.6,179.4,39.6,179.7,39.6L179.7,39.6z M161.1,63.4
		c0-5.4,8.7-9.9,18.9-9.9S199,58,199,63.4c0,5.4-8.7,9.9-18.9,9.9C169.8,73.4,161.1,68.8,161.1,63.4L161.1,63.4z M141.1,70.2
		l0.2,0.1c0.4-0.5,0.9-0.8,1.3-0.8c0,0,0,0,0,0c0.5,0,0.9,0.3,1.3,0.8l5.4,7.3c0.3,0.5,0.4,0.8,0.4,0.7c0,0-0.2,0.1-0.5,0.1
		l-2.7,0.4l4,5.4c0.5,0.7,0.5,1.1,0.5,1.2c0,0-0.2,0.2-0.9,0.3l-3,0.3l5.2,7.1c0.6,0.8,0.7,1.4,0.6,1.7c-0.1,0.2-0.4,0.4-0.6,0.4
		l-2.1,0.7l4.8,6.6c0.7,0.9,1.2,2.2,0.7,2.8l-0.8,1l1.7,2.4c0.9,1.3,1.3,2.4,0.9,3.1c-0.4,0.7-1.5,1.1-3.1,1.1h-7.9
		c-3.9-8-6.2-16.7-6.7-25.7C139.6,81.5,140,75.8,141.1,70.2L141.1,70.2z M192,136.2c-3.9-0.3-7.5-1.4-10.8-3.1
		c3.2-3.2,7.1-5.5,11.4-6.9c-0.5,2.2-0.8,4.5-0.8,6.8C191.8,134.1,191.9,135.1,192,136.2L192,136.2z M195.4,136.3
		c-0.1-1.1-0.2-2.2-0.2-3.3c0-2.7,0.4-5.2,1.1-7.6c1.5-0.3,3.1-0.4,4.7-0.4c1.5,0,3,0.1,4.5,0.4c0.3,1.6,0.5,3.2,0.5,4.9
		c0,1.2-0.1,2.5-0.3,3.7C202.5,135.3,199,136.1,195.4,136.3L195.4,136.3z M166.3,108.3c0-1.3,0.1-2.5,0.3-3.7
		c3.6-1.6,7.4-2.4,11.3-2.4c6,0,11.5,1.9,16.1,5.1c-5.1,5.3-12.3,8.6-20.2,8.6c-2.3,0-4.5-0.3-6.7-0.8
		C166.6,112.8,166.3,110.6,166.3,108.3L166.3,108.3z M177.9,98.8c-3.6,0-7.2,0.6-10.5,1.8c1.1-3.7,2.8-7.1,5.2-10
		c5,3.2,10.8,5,16.9,5c0.2,0,0.3,0,0.5,0c0.3,0.2,0.6,0.4,0.9,0.6c-0.3,0.1-0.6,0.2-0.8,0.4c-0.3,0.3-0.5,0.7-0.5,1.2
		c0,0.4,0.2,0.9,0.5,1.2c0.3,0.3,0.7,0.5,1.2,0.5c0.4,0,0.9-0.2,1.2-0.5c0.3-0.3,0.5-0.7,0.5-1.2c0-0.1,0-0.3-0.1-0.4
		c2,1.1,4.1,1.9,6.2,2.5c-0.8,1.7-1.8,3.4-3,4.9C191,101,184.7,98.8,177.9,98.8L177.9,98.8z M174.8,88.1c1.5-1.5,3.2-2.8,5-3.9
		c1.5,2.9,3.5,5.5,5.7,7.7C181.8,91.4,178.1,90.1,174.8,88.1L174.8,88.1z M195.6,94.9c2-0.4,3.9-1,5.8-1.8c-0.2,1.2-0.6,2.4-1,3.5
		C198.7,96.3,197.1,95.7,195.6,94.9L195.6,94.9z M202.4,100.6c1.7,0.3,3.4,0.4,5.2,0.4c4.5,0,8.9-1,12.9-2.8
		c0.4,1.1,0.8,2.3,1.1,3.4c-7.6,0.4-14.4,3.5-19.7,8.3c-1-1.2-2.1-2.2-3.2-3.3C200.2,104.8,201.4,102.8,202.4,100.6L202.4,100.6z
		 M204.7,121.8c-1.2-0.1-2.5-0.2-3.7-0.2c-1.2,0-2.3,0.1-3.4,0.2c1-2.4,2.4-4.6,4-6.6C202.9,117.2,203.9,119.4,204.7,121.8
		L204.7,121.8z M209,126.1c1.8,0.5,3.5,1.2,5.1,2.1c-1.5,1.5-3.1,2.7-4.9,3.8c0-0.6,0.1-1.2,0.1-1.8
		C209.3,128.8,209.2,127.4,209,126.1L209,126.1z M216.3,125.6c-2.5-1.4-5.2-2.5-8.1-3.2c-0.9-3.5-2.4-6.9-4.3-9.8
		c4.8-4.6,11.2-7.4,18.3-7.7c0.1,1.1,0.2,2.2,0.2,3.3C222.4,114.8,220.1,120.8,216.3,125.6L216.3,125.6z M219.2,95.2
		c-3.6,1.6-7.6,2.5-11.5,2.5c-1.3,0-2.6-0.1-3.9-0.3c0.6-1.9,1.1-3.9,1.3-6c2.5-1.4,4.7-3.2,6.7-5.2
		C214.8,88.7,217.3,91.7,219.2,95.2L219.2,95.2z M205.2,87.3c0-1.7-0.2-3.5-0.5-5.2c1.5,0.6,2.9,1.3,4.2,2.1
		C207.8,85.4,206.5,86.5,205.2,87.3L205.2,87.3z M201.1,81c0.5,2.2,0.8,4.4,0.8,6.7c0,0.5,0,1.1-0.1,1.6c-3.4,1.7-7.1,2.6-10.9,2.8
		c-3.3-2.5-6.1-5.7-8.1-9.5c3.5-1.6,7.4-2.5,11.5-2.5C196.7,80.2,198.9,80.5,201.1,81L201.1,81z M168.3,118.6
		c1.8,0.3,3.7,0.5,5.5,0.5c9,0,17-3.8,22.8-9.8c1.1,1,2.1,2,3,3.1c-2.6,2.9-4.6,6.3-5.9,10.1c-5.8,1.4-11.2,4.4-15.4,8.8
		C173.9,128.2,170.3,123.8,168.3,118.6L168.3,118.6z M192.5,139.6c0.6,0,1.2,0.1,1.8,0.1c0.6,0,1.2-0.1,1.8-0.1v11.1
		c-1.2-0.2-2.4-0.5-3.6-0.7V139.6L192.5,139.6L192.5,139.6z M228.6,17.3c4.9,1.5,9.6,3.5,14.1,6.1c-1.5,2-3.8,3.3-6.4,3.3
		c-4.3,0-7.9-3.5-7.9-7.9C228.5,18.3,228.5,17.8,228.6,17.3L228.6,17.3z M204.6,33.5c-0.1,0-0.1,0-0.2,0l-0.2,0c-0.1,0-0.2,0-0.3,0
		c-2.4,0-4.4-2-4.4-4.4c0-2.2,1.6-4,3.8-4.3c0.8-0.1,1.4-0.8,1.4-1.6c0-2.8,2.3-5.1,5.1-5.1c2.8,0,5.1,2.3,5.1,5.1
		c0,0.7-0.2,1.5-0.5,2.2c-0.2,0.4-0.2,0.9-0.1,1.3c0.1,0.4,0.5,0.8,0.9,0.9c2.3,1.1,3.7,3.3,3.7,5.8c0,3.5-2.9,6.4-6.4,6.4
		c-3,0-5.6-2.1-6.2-5C206.1,34,205.4,33.5,204.6,33.5L204.6,33.5z M230.5,78l-0.4-1.7l-1.6,0.5c-0.9,0.3-1.8,0.4-2.7,0.4
		c-5.1,0-9.2-4.1-9.2-9.2c0-4.3,2.9-7.9,7-8.9l2.6-0.6l-1.8-2.1c-0.6-0.7-1.4-1.9-1.4-3.6c0-3,2.5-5.5,5.5-5.5
		c2.6,0,4.9,1.9,5.4,4.5l0.2,1.2l1.2,0.1l3,0.5l-0.7-2.5c-0.2-0.8-0.3-1.6-0.3-2.4c0-5,4.1-9,9-9c5,0,9,4.1,9,9
		c0,1.3-0.3,2.6-0.9,3.9l-0.9,1.9l2.1,0.4c3.6,0.8,6.5,3.4,7.5,7l0.3,0.9l0.9,0.2c3.7,1,6.3,4.4,6.3,8.2c0,5.3-4.9,9.6-10.5,8.3
		l-1.4-0.3l-0.5,1.3c-1.1,2.6-3.6,4.3-6.4,4.3c-2.3,0-4.5-1.2-5.8-3.1l-1.1-1.7l-1.4,1.4c-1.5,1.4-3.4,2.2-5.5,2.2
		C234.6,83.8,231.4,81.4,230.5,78L230.5,78z M230.8,117l0.9-3.3l7.2,4.1V87.1c0.9-0.1,1.7-0.2,2.6-0.5v21.7l5.6-5.6v1l-5.6,8.1v31.6
		c-1,0.6-2,1.1-3.1,1.6v-20.5L230.8,117L230.8,117z M260,128.6c-4.5,5.1-9.7,9.4-15.3,12.9v-28.6l5.6-8.1V94.7l-5.6,5.6V85.3
		c1.9,1.9,4.4,2.9,7.2,2.9c3.7,0,7.1-2,8.9-5.2c7.1,0.8,13.2-4.8,13.2-11.8c0-5-3.2-9.5-7.9-11.2c-1.3-3.7-4.2-6.6-7.8-7.9
		c0.3-1.1,0.5-2.3,0.5-3.5c0-6.8-5.5-12.4-12.4-12.4c-5.9,0-10.9,4.2-12.1,9.8c-1.6-1.4-3.6-2.2-5.8-2.2c-3.1,0-5.8,1.6-7.4,4.1
		c-5.1-0.3-7.9-2.8-9.4-4.9c0.3,0,0.5,0.1,0.8,0.1c4.8,0,8.7-3.5,9.6-8c3.5,0,8.5-1.3,11.3-5.6c1,0.3,2,0.4,3,0.4
		c3.7,0,7.1-1.9,9.2-4.9c3,1.9,5.8,4,8.5,6.4c13.8,12.2,22,28.9,23.1,47.3c0.3,5.6,0,11-0.9,16.4L271,83.9l-13.3,24.4h6.4l-6.2,12.6
		h8.1C264.1,123.6,262.2,126.1,260,128.6L260,128.6z M272.5,108.3c-1.3,3.2-2.8,6.3-4.5,9.2h-4.8l4.6-9.2H272.5L272.5,108.3z
		 M263.3,105l7.5-13.7l4.2,9.3c-0.4,1.5-0.8,3-1.3,4.4L263.3,105L263.3,105L263.3,105z"/>
	<path class="st1" d="M163.5,30.6c0.4,0,0.8-0.1,1.1-0.4c1-0.9,2.1-1.7,3.2-2.5c0.7-0.5,0.9-1.6,0.4-2.3c-0.5-0.7-1.6-0.9-2.3-0.4
		c-1.1,0.8-2.3,1.7-3.4,2.7c-0.7,0.6-0.8,1.6-0.2,2.3C162.5,30.4,163,30.6,163.5,30.6L163.5,30.6z"/>
	<path class="st1" d="M171,95c-0.3,0.3-0.5,0.7-0.5,1.2c0,0.4,0.2,0.9,0.5,1.2c0.3,0.3,0.7,0.5,1.2,0.5c0.4,0,0.9-0.2,1.2-0.5
		c0.3-0.3,0.5-0.7,0.5-1.2c0-0.4-0.2-0.9-0.5-1.2C172.8,94.3,171.7,94.3,171,95L171,95z"/>
	<path class="st1" d="M176.9,111c0.4,0,0.9-0.2,1.2-0.5c0.3-0.3,0.5-0.7,0.5-1.2c0-0.5-0.2-0.9-0.5-1.2c-0.6-0.6-1.7-0.6-2.4,0
		c-0.3,0.3-0.5,0.7-0.5,1.2c0,0.4,0.2,0.9,0.5,1.2C176.1,110.8,176.5,111,176.9,111L176.9,111z"/>
	<path class="st1" d="M179.7,141.8c0.3-0.3,0.5-0.7,0.5-1.2c0-0.5-0.2-0.9-0.5-1.2c-0.6-0.6-1.7-0.6-2.4,0c-0.3,0.3-0.5,0.7-0.5,1.2
		c0,0.4,0.2,0.9,0.5,1.2c0.3,0.3,0.7,0.5,1.2,0.5C179,142.3,179.4,142.1,179.7,141.8L179.7,141.8z"/>
	<path class="st1" d="M210.4,138.5c-0.3,0.3-0.5,0.7-0.5,1.2c0,0.4,0.2,0.9,0.5,1.2c0.3,0.3,0.7,0.5,1.2,0.5c0.4,0,0.9-0.2,1.2-0.5
		c0.3-0.3,0.5-0.7,0.5-1.2c0-0.4-0.2-0.9-0.5-1.2C212.1,137.9,211,137.9,210.4,138.5L210.4,138.5z"/>
	<path class="st1" d="M202.8,143.4c-0.3,0.3-0.5,0.7-0.5,1.2c0,0.5,0.2,0.9,0.5,1.2c0.3,0.3,0.7,0.5,1.2,0.5c0.4,0,0.9-0.2,1.2-0.5
		c0.3-0.3,0.5-0.7,0.5-1.2c0-0.4-0.2-0.9-0.5-1.2C204.5,142.8,203.4,142.7,202.8,143.4L202.8,143.4z"/>
	<path class="st1" d="M194,87.3c0.4,0,0.9-0.2,1.2-0.5c0.3-0.3,0.5-0.7,0.5-1.2c0-0.4-0.2-0.9-0.5-1.2c-0.6-0.6-1.7-0.6-2.4,0
		c-0.3,0.3-0.5,0.7-0.5,1.2c0,0.4,0.2,0.9,0.5,1.2C193.1,87.2,193.5,87.3,194,87.3L194,87.3z"/>
	<path class="st1" d="M215.1,114.8c0.3-0.3,0.5-0.7,0.5-1.2c0-0.4-0.2-0.9-0.5-1.2c-0.6-0.6-1.7-0.6-2.4,0c-0.3,0.3-0.5,0.7-0.5,1.2
		c0,0.5,0.2,0.9,0.5,1.2c0.3,0.3,0.7,0.5,1.2,0.5C214.3,115.3,214.7,115.1,215.1,114.8L215.1,114.8z"/>
	<path class="st1" d="M216,95.6c0.4,0,0.9-0.2,1.2-0.5c0.3-0.3,0.5-0.7,0.5-1.2c0-0.4-0.2-0.9-0.5-1.2c-0.6-0.6-1.7-0.6-2.4,0
		c-0.3,0.3-0.5,0.7-0.5,1.2c0,0.5,0.2,0.9,0.5,1.2C215.1,95.4,215.5,95.6,216,95.6L216,95.6z"/>
	<path class="st1" d="M178.5,126.4c0.4,0,0.9-0.2,1.2-0.5c0.3-0.3,0.5-0.7,0.5-1.2s-0.2-0.9-0.5-1.2c-0.6-0.6-1.7-0.6-2.4,0
		c-0.3,0.3-0.5,0.7-0.5,1.2s0.2,0.9,0.5,1.2C177.7,126.2,178.1,126.4,178.5,126.4L178.5,126.4z"/>
	<path class="st1" d="M187.2,122.3c0.4,0,0.9-0.2,1.2-0.5c0.3-0.3,0.5-0.7,0.5-1.2c0-0.4-0.2-0.9-0.5-1.2c-0.6-0.6-1.7-0.6-2.3,0
		c-0.3,0.3-0.5,0.7-0.5,1.2c0,0.4,0.2,0.9,0.5,1.2C186.3,122.2,186.7,122.3,187.2,122.3L187.2,122.3z"/>
	<path class="st1" d="M197.3,130.5c-0.3,0.3-0.5,0.7-0.5,1.2c0,0.4,0.2,0.9,0.5,1.2c0.3,0.3,0.7,0.5,1.2,0.5s0.9-0.2,1.2-0.5
		c0.3-0.3,0.5-0.7,0.5-1.2c0-0.4-0.2-0.9-0.5-1.2C199.1,129.9,197.9,129.9,197.3,130.5L197.3,130.5z"/>
	<path class="st1" d="M203.2,127.2c-0.6-0.6-1.7-0.6-2.3,0c-0.3,0.3-0.5,0.7-0.5,1.2c0,0.5,0.2,0.9,0.5,1.2c0.3,0.3,0.7,0.5,1.2,0.5
		c0.4,0,0.9-0.2,1.2-0.5c0.3-0.3,0.5-0.7,0.5-1.2C203.7,127.9,203.6,127.5,203.2,127.2L203.2,127.2z"/>
	<path class="st1" d="M183.5,131.4c-0.3,0.3-0.5,0.7-0.5,1.2c0,0.4,0.2,0.9,0.5,1.2c0.3,0.3,0.7,0.5,1.2,0.5c0.4,0,0.9-0.2,1.2-0.5
		c0.3-0.3,0.5-0.7,0.5-1.2c0-0.4-0.2-0.9-0.5-1.2C185.2,130.8,184.1,130.8,183.5,131.4L183.5,131.4z"/>
	<path class="st1" d="M213.7,121c-0.3,0.3-0.5,0.7-0.5,1.2c0,0.4,0.2,0.9,0.5,1.2c0.3,0.3,0.7,0.5,1.2,0.5c0.4,0,0.9-0.2,1.2-0.5
		c0.3-0.3,0.5-0.7,0.5-1.2c0-0.4-0.2-0.9-0.5-1.2C215.4,120.4,214.3,120.4,213.7,121L213.7,121z"/>
	<path class="st1" d="M221.6,106.2c-0.6-0.6-1.7-0.6-2.3,0c-0.3,0.3-0.5,0.7-0.5,1.2c0,0.4,0.2,0.9,0.5,1.2c0.3,0.3,0.7,0.5,1.2,0.5
		c0.4,0,0.9-0.2,1.2-0.5c0.3-0.3,0.5-0.7,0.5-1.2C222.1,106.9,222,106.5,221.6,106.2L221.6,106.2z"/>
	<path class="st1" d="M190.9,90.6c0.4,0,0.9-0.2,1.2-0.5c0.3-0.3,0.5-0.7,0.5-1.2c0-0.4-0.2-0.9-0.5-1.2c-0.6-0.6-1.7-0.6-2.4,0
		c-0.3,0.3-0.5,0.7-0.5,1.2c0,0.4,0.2,0.9,0.5,1.2C190,90.4,190.4,90.6,190.9,90.6L190.9,90.6z"/>
	<path class="st1" d="M172.7,31c-0.3,0.3-0.5,0.7-0.5,1.2c0,0.4,0.2,0.9,0.5,1.2c0.3,0.3,0.7,0.5,1.2,0.5c0.4,0,0.9-0.2,1.2-0.5
		c0.3-0.3,0.5-0.7,0.5-1.2c0-0.4-0.2-0.9-0.5-1.2C174.4,30.4,173.3,30.4,172.7,31L172.7,31z"/>
	<path class="st1" d="M180.7,34.2c0-0.4-0.2-0.9-0.5-1.2c-0.6-0.6-1.7-0.6-2.4,0c-0.3,0.3-0.5,0.7-0.5,1.2c0,0.4,0.2,0.9,0.5,1.2
		c0.3,0.3,0.7,0.5,1.2,0.5c0.4,0,0.9-0.2,1.2-0.5C180.5,35,180.7,34.6,180.7,34.2L180.7,34.2z"/>
	<path class="st1" d="M184.1,35.1c0.4,0,0.9-0.2,1.2-0.5c0.3-0.3,0.5-0.7,0.5-1.2c0-0.4-0.2-0.9-0.5-1.2c-0.6-0.6-1.7-0.6-2.3,0
		c-0.3,0.3-0.5,0.7-0.5,1.2c0,0.4,0.2,0.9,0.5,1.2C183.2,34.9,183.6,35.1,184.1,35.1L184.1,35.1z"/>
	<path class="st1" d="M168.6,60.6c-0.3,0.3-0.5,0.7-0.5,1.2s0.2,0.9,0.5,1.2c0.3,0.3,0.7,0.5,1.2,0.5c0.4,0,0.9-0.2,1.2-0.5
		c0.3-0.3,0.5-0.7,0.5-1.2s-0.2-0.9-0.5-1.2C170.4,60,169.2,60,168.6,60.6L168.6,60.6z"/>
	<path class="st1" d="M183.8,62.2c-0.3,0.3-0.5,0.7-0.5,1.2s0.2,0.9,0.5,1.2c0.3,0.3,0.7,0.5,1.2,0.5c0.4,0,0.9-0.2,1.2-0.5
		c0.3-0.3,0.5-0.7,0.5-1.2s-0.2-0.9-0.5-1.2C185.5,61.6,184.4,61.6,183.8,62.2L183.8,62.2z"/>
	<path class="st1" d="M175.7,68.5c-0.3,0.3-0.5,0.7-0.5,1.2c0,0.4,0.2,0.9,0.5,1.2c0.3,0.3,0.7,0.5,1.2,0.5c0.4,0,0.9-0.2,1.2-0.5
		c0.3-0.3,0.5-0.7,0.5-1.2c0-0.4-0.2-0.9-0.5-1.2C177.4,67.9,176.3,67.9,175.7,68.5L175.7,68.5z"/>
	<path class="st1" d="M177.8,56.5c-0.3,0.3-0.5,0.7-0.5,1.2c0,0.4,0.2,0.9,0.5,1.2c0.3,0.3,0.7,0.5,1.2,0.5c0.4,0,0.9-0.2,1.2-0.5
		c0.3-0.3,0.5-0.7,0.5-1.2c0-0.4-0.2-0.9-0.5-1.2C179.6,55.9,178.5,55.9,177.8,56.5L177.8,56.5z"/>
	<path class="st1" d="M196.4,60.6c-0.6-0.6-1.7-0.6-2.4,0c-0.3,0.3-0.5,0.7-0.5,1.2c0,0.4,0.2,0.9,0.5,1.2c0.3,0.3,0.7,0.5,1.2,0.5
		c0.4,0,0.9-0.2,1.2-0.5c0.3-0.3,0.5-0.7,0.5-1.2C196.9,61.4,196.7,60.9,196.4,60.6L196.4,60.6z"/>
	<path class="st1" d="M188.6,67.7c-0.3,0.3-0.5,0.7-0.5,1.2c0,0.4,0.2,0.9,0.5,1.2c0.3,0.3,0.7,0.5,1.2,0.5c0.4,0,0.9-0.2,1.2-0.5
		c0.3-0.3,0.5-0.7,0.5-1.2c0-0.4-0.2-0.9-0.5-1.2C190.3,67.1,189.2,67.1,188.6,67.7L188.6,67.7z"/>
	<path class="st1" d="M189.7,58.8c0.3-0.3,0.5-0.7,0.5-1.2c0-0.4-0.2-0.9-0.5-1.2c-0.6-0.6-1.7-0.6-2.4,0c-0.3,0.3-0.5,0.7-0.5,1.2
		c0,0.4,0.2,0.9,0.5,1.2c0.3,0.3,0.7,0.5,1.2,0.5C188.9,59.3,189.3,59.2,189.7,58.8L189.7,58.8z"/>
	<path class="st1" d="M170.8,56.5c-0.3,0.3-0.5,0.7-0.5,1.2c0,0.4,0.2,0.9,0.5,1.2c0.3,0.3,0.7,0.5,1.2,0.5c0.4,0,0.9-0.2,1.2-0.5
		c0.3-0.3,0.5-0.7,0.5-1.2c0-0.4-0.2-0.9-0.5-1.2C172.5,55.9,171.4,55.9,170.8,56.5L170.8,56.5z"/>
	<path class="st1" d="M177.1,62.2c-0.3,0.3-0.5,0.7-0.5,1.2s0.2,0.9,0.5,1.2c0.3,0.3,0.7,0.5,1.2,0.5c0.4,0,0.9-0.2,1.2-0.5
		c0.3-0.3,0.5-0.7,0.5-1.2s-0.2-0.9-0.5-1.2C178.8,61.6,177.7,61.6,177.1,62.2L177.1,62.2z"/>
	<path class="st1" d="M167.5,67.7c-0.3,0.3-0.5,0.7-0.5,1.2c0,0.4,0.2,0.9,0.5,1.2c0.3,0.3,0.7,0.5,1.2,0.5c0.4,0,0.9-0.2,1.2-0.5
		c0.3-0.3,0.5-0.7,0.5-1.2c0-0.4-0.2-0.9-0.5-1.2C169.3,67.1,168.1,67.1,167.5,67.7L167.5,67.7z"/>
	<polygon class="st1" points="251,61.6 248.4,59.6 243.1,66.3 237.5,59.5 234.9,61.6 243.1,71.6 251,61.6 	"/>
</g>
</svg>
